<svg width="48" height="48" viewBox="0 0 48 48" fill="none" xmlns="http://www.w3.org/2000/svg">
<g clip-path="url(#clip0_94_3664)">
<rect width="24" height="24" fill="#FB2C36"/>
<path d="M16.6667 13.3333C17.66 12.36 18.6667 11.1933 18.6667 9.66667C18.6667 8.69421 18.2804 7.76158 17.5928 7.07394C16.9051 6.38631 15.9725 6 15 6C13.8267 6 13 6.33333 12 7.33333C11 6.33333 10.1734 6 9.00004 6C8.02758 6 7.09495 6.38631 6.40732 7.07394C5.71968 7.76158 5.33337 8.69421 5.33337 9.66667C5.33337 11.2 6.33337 12.3667 7.33337 13.3333L12 18L16.6667 13.3333Z" stroke="white" stroke-width="2" stroke-linecap="round" stroke-linejoin="round"/>
<rect width="24" height="24" transform="translate(24)" fill="black"/>
<g clip-path="url(#clip1_94_3664)">
<path d="M36 15.9999C35 16.9999 34.2 17.3333 33 17.3333C32.0276 17.3333 31.0949 16.9469 30.4073 16.2593C30.0668 15.9188 29.7967 15.5146 29.6125 15.0698C29.4282 14.6249 29.3334 14.1481 29.3334 13.6666C29.3334 12.1333 30.3334 10.9999 31.3334 9.99992L36 5.33325L40.6667 9.99992C41.6667 10.9999 42.6667 12.1333 42.6667 13.6666C42.6667 14.1481 42.5719 14.6249 42.3876 15.0698C42.2033 15.5146 41.9332 15.9188 41.5928 16.2593C41.2523 16.5998 40.8481 16.8699 40.4032 17.0541C39.9584 17.2384 39.4816 17.3333 39 17.3333C37.8 17.3333 37 16.9999 36 15.9999ZM36 15.9999V18.6666" stroke="white" stroke-width="2" stroke-linecap="round" stroke-linejoin="round"/>
</g>
<rect width="24" height="24" transform="translate(0 24)" fill="black"/>
<g clip-path="url(#clip2_94_3664)">
<path d="M12 39.7734C11.6503 40.2702 11.1826 40.6723 10.6391 40.9436C10.0955 41.2149 9.49299 41.3468 8.88576 41.3276C8.27854 41.3084 7.68561 41.1386 7.16027 40.8335C6.63492 40.5284 6.19361 40.0975 5.87602 39.5796C5.55842 39.0617 5.37448 38.473 5.34074 37.8664C5.307 37.2598 5.42451 36.6544 5.68271 36.1044C5.94091 35.5545 6.3317 35.0774 6.81997 34.7159C7.30824 34.3544 7.87868 34.1199 8.48002 34.0334C8.32064 33.487 8.29067 32.9109 8.3925 32.3508C8.49433 31.7908 8.72515 31.2621 9.06669 30.8068C9.40823 30.3514 9.8511 29.9818 10.3602 29.7272C10.8694 29.4726 11.4308 29.3401 12 29.3401C12.5693 29.3401 13.1307 29.4726 13.6398 29.7272C14.1489 29.9818 14.5918 30.3514 14.9334 30.8068C15.2749 31.2621 15.5057 31.7908 15.6075 32.3508C15.7094 32.9109 15.6794 33.487 15.52 34.0334V34.0401C16.1221 34.1258 16.6934 34.3598 17.1825 34.7212C17.6716 35.0826 18.0631 35.56 18.3218 36.1103C18.5805 36.6607 18.6983 37.2668 18.6645 37.8739C18.6307 38.4811 18.4464 39.0704 18.1282 39.5886C17.8101 40.1069 17.368 40.5379 16.8418 40.8427C16.3156 41.1476 15.7219 41.3169 15.114 41.3352C14.5062 41.3535 13.9033 41.2204 13.3597 40.9477C12.8161 40.6751 12.3489 40.2716 12 39.7734ZM12 39.7734V42.6668" stroke="white" stroke-width="2" stroke-linecap="round" stroke-linejoin="round"/>
</g>
<rect width="24" height="24" transform="translate(24 24)" fill="#FB2C36"/>
<g clip-path="url(#clip3_94_3664)">
<path d="M29.8 34.8666C29.6507 35.0158 29.5322 35.193 29.4513 35.3881C29.3705 35.5831 29.3289 35.7922 29.3289 36.0033C29.3289 36.2144 29.3705 36.4235 29.4513 36.6185C29.5322 36.8135 29.6507 36.9907 29.8 37.1399L34.86 42.1999C35.0092 42.3493 35.1864 42.4678 35.3815 42.5487C35.5765 42.6295 35.7856 42.6711 35.9967 42.6711C36.2078 42.6711 36.4169 42.6295 36.6119 42.5487C36.807 42.4678 36.9841 42.3493 37.1334 42.1999L42.1934 37.1399C42.3427 36.9907 42.4612 36.8135 42.5421 36.6185C42.6229 36.4235 42.6645 36.2144 42.6645 36.0033C42.6645 35.7922 42.6229 35.5831 42.5421 35.3881C42.4612 35.193 42.3427 35.0158 42.1934 34.8666L37.1334 29.8066C36.9841 29.6572 36.807 29.5388 36.6119 29.4579C36.4169 29.3771 36.2078 29.3354 35.9967 29.3354C35.7856 29.3354 35.5765 29.3771 35.3815 29.4579C35.1864 29.5388 35.0092 29.6572 34.86 29.8066L29.8 34.8666Z" stroke="white" stroke-width="2" stroke-linecap="round" stroke-linejoin="round"/>
</g>
<rect opacity="0.5" width="48" height="48" fill="url(#paint0_linear_94_3664)"/>
</g>
<path d="M12 0.25L36 0.25C42.4893 0.25 47.75 5.51065 47.75 12V36C47.75 42.4893 42.4893 47.75 36 47.75H12C5.51065 47.75 0.25 42.4893 0.25 36L0.25 12C0.25 5.51065 5.51065 0.25 12 0.25Z" stroke="#292524" stroke-width="0.5"/>
<defs>
<linearGradient id="paint0_linear_94_3664" x1="24" y1="0" x2="24" y2="48" gradientUnits="userSpaceOnUse">
<stop stop-color="white" stop-opacity="0"/>
<stop offset="1" stop-color="white"/>
</linearGradient>
<clipPath id="clip0_94_3664">
<path d="M0 12C0 5.37258 5.37258 0 12 0L36 0C42.6274 0 48 5.37258 48 12V36C48 42.6274 42.6274 48 36 48H12C5.37258 48 0 42.6274 0 36L0 12Z" fill="white"/>
</clipPath>
<clipPath id="clip1_94_3664">
<rect width="16" height="16" fill="white" transform="translate(28 4)"/>
</clipPath>
<clipPath id="clip2_94_3664">
<rect width="16" height="16" fill="white" transform="translate(4 28)"/>
</clipPath>
<clipPath id="clip3_94_3664">
<rect width="16" height="16" fill="white" transform="translate(28 28)"/>
</clipPath>
</defs>
</svg>
